<?xml version="1.0" encoding="UTF-8" standalone="no"?>
<svg
   xmlns:dc="http://purl.org/dc/elements/1.1/"
   xmlns:cc="http://creativecommons.org/ns#"
   xmlns:rdf="http://www.w3.org/1999/02/22-rdf-syntax-ns#"
   xmlns:svg="http://www.w3.org/2000/svg"
   xmlns="http://www.w3.org/2000/svg"
   xmlns:sodipodi="http://sodipodi.sourceforge.net/DTD/sodipodi-0.dtd"
   xmlns:inkscape="http://www.inkscape.org/namespaces/inkscape"
   version="1.1"
   viewBox="0 0 512 512"
   enable-background="new 0 0 512 512"
   id="svg18"
   sodipodi:docname="light-bulb.svg"
   inkscape:version="0.92.4 (5da689c313, 2019-01-14)">
  <metadata
     id="metadata24">
    <rdf:RDF>
      <cc:Work
         rdf:about="">
        <dc:format>image/svg+xml</dc:format>
        <dc:type
           rdf:resource="http://purl.org/dc/dcmitype/StillImage" />
      </cc:Work>
    </rdf:RDF>
  </metadata>
  <defs
     id="defs22" />
  <sodipodi:namedview
     pagecolor="#ffffff"
     bordercolor="#666666"
     borderopacity="1"
     objecttolerance="10"
     gridtolerance="10"
     guidetolerance="10"
     inkscape:pageopacity="0"
     inkscape:pageshadow="2"
     inkscape:window-width="1360"
     inkscape:window-height="715"
     id="namedview20"
     showgrid="false"
     inkscape:zoom="0.4609375"
     inkscape:cx="368.65459"
     inkscape:cy="190.41126"
     inkscape:window-x="-8"
     inkscape:window-y="-8"
     inkscape:window-maximized="1"
     inkscape:current-layer="g16" />
  <g
     id="g16">
    <path
       sodipodi:nodetypes="sccccssccccscssscccccsccsccssc"
       inkscape:connector-curvature="0"
       id="path2"
       d="m 256,92.3 c -74.2,0 -127.8,55.3 -136.3,114.7 -5.3,39.6 7.5,78.2 34.1,107.4 23.4,25 36.2,58.4 36.2,92.8 l -0.1,74.2 c 0,21.9 -1.9,19.6 20.5,19.6 h 92.2 c 22.4,0 20.5,2.3 20.5,-19.6 l 0.1,-74.2 c 0,-35.4 11.7,-67.8 34.1,-90.7 24.5,-25 37.3,-57.3 37.3,-90.7 C 394.5,151.7 331.6,92.3 256,92.3 Z m 46.8,379.1 c 0,10.4 1.5,8.8 -9.2,8.8 h -72.2 c -10.7,0 -9.2,1.7 -9.2,-8.8 v -34 h 90.5 v 30 z m 39.6,-169.5 c -26.6,27.1 -40.5,64.6 -40.5,105.3 v 9.4 h -90.5 v -9.4 c 0,-38.6 -16,-77.1 -42.6,-106.3 -23.4,-25 -33,-57.3 -28.8,-90.7 7.5,-50 54,-97 116.1,-97 65,0 117.2,51.1 117.2,112.6 0,28.1 -10.7,55.2 -30.9,76.1 z"
       style="fill:#ffffff" />
    <rect
       id="rect4"
       height="50"
       y="11"
       x="245.3"
       width="21.299999"
       style="fill:#ffffff" />
    <polygon
       id="polygon6"
       points="436.5,87.2 421.5,72.3 385.1,107.4 400,122.3 "
       style="fill:#ffffff" />
    <rect
       ry="0"
       id="rect10"
       height="20.9"
       y="224.81593"
       x="36.737576"
       width="52.200001"
       transform="rotate(-0.55169843)"
       style="fill:#ffffff" />
    <polygon
       id="polygon12"
       points="111.6,122.2 126.5,107.3 90.1,72.2 75.1,87.1 "
       style="fill:#ffffff" />
    <rect
       ry="0"
       id="rect10-5"
       height="20.9"
       y="221.24799"
       x="416.53091"
       width="52.200001"
       transform="rotate(0.54504922)"
       style="fill:#ffffff" />
  </g>
</svg>
